<?xml version="1.0" encoding="UTF-8"?>
<svg width="101px" height="43px" viewBox="0 0 101 43" version="1.1" xmlns="http://www.w3.org/2000/svg" xmlns:xlink="http://www.w3.org/1999/xlink">
    <!-- Generator: Sketch 48.2 (47327) - http://www.bohemiancoding.com/sketch -->
    <title>Page 1</title>
    <desc>Created with Sketch.</desc>
    <defs>
        <polygon id="path-1" points="36.368066 36.312606 36.368066 0.282165289 0.0827649657 0.282165289 0.0827649657 36.312606 36.368066 36.312606"></polygon>
        <polygon id="path-3" points="0.000103808877 36.2479339 36.2854291 36.2479339 36.2854291 0.215047182 0.000103808877 0.215047182"></polygon>
    </defs>
    <g id="Artboard" stroke="none" stroke-width="1" fill="none" fill-rule="evenodd" transform="translate(-325.000000, -19.000000)">
        <g id="Group">
            <g id="Page-1" transform="translate(325.000000, 19.000000)">
                <g id="Group-3" transform="translate(64.527778, 0.073207)">
                    <mask id="mask-2" fill="white">
                        <use xlink:href="#path-1"></use>
                    </mask>
                    <g id="Clip-2"></g>
                    <path d="M36.2701521,30.7454975 C36.5713986,31.7064231 36.1688014,32.3201504 35.1949229,32.4367124 L29.6904229,33.0664314 C28.8596278,33.1574066 28.2055826,32.8102083 28.0260271,32.0237702 L23.2032771,12.7686545 C23.0605444,12.3112909 22.6898604,12.3557124 22.6505826,12.834043 L21.7342181,32.7423322 C21.6882771,33.5540017 21.1752111,34.0440595 20.3416104,34.1350347 L16.3636833,34.5899107 C15.5300826,34.690481 14.9293431,34.3287124 14.7034958,33.5472496 L9.42028403,14.3525471 C9.27509653,13.8955388 8.90476319,13.939605 8.86092639,14.4179355 L8.40958264,34.2750512 C8.40502361,35.0753488 7.84812083,35.5696711 7.016975,35.6652661 L1.512475,36.2974727 C0.536492361,36.4094149 0.0139576389,35.8962579 0.0900583333,34.893043 L2.42182569,4.18393554 C2.47232569,3.36977851 2.98363819,2.88469587 3.81478403,2.78625785 L10.3412076,2.04210909 C11.1723535,1.94438182 11.7292563,2.31041488 12.0034993,3.08263802 L15.8362389,14.3315802 C15.9789715,14.784324 16.3521104,14.7423901 16.3889333,14.2640595 L17.6458222,2.44119174 C17.7447181,1.62241488 18.202725,1.14159669 19.0408847,1.04635702 L25.5606451,0.297233058 C26.3938951,0.201638017 26.9991938,0.558786777 27.2225861,1.34024959 L36.2701521,30.7454975 Z" id="Fill-1" fill="#FEFEFE" mask="url(#mask-2)"></path>
                </g>
                <g id="Group-6" transform="translate(0.000000, 6.469901)">
                    <mask id="mask-4" fill="white">
                        <use xlink:href="#path-3"></use>
                    </mask>
                    <g id="Clip-5"></g>
                    <path d="M0.0946875,5.78652066 C-0.199895833,4.82061983 0.203052083,4.20476033 1.17202083,4.09246281 L6.67652083,3.4627438 C7.51432986,3.36714876 8.16136111,3.71719008 8.34302083,4.50327273 L13.1615625,23.7559008 C13.3088542,24.2157521 13.6725243,24.1738182 13.718816,23.6908678 L14.6348299,3.78222314 C14.6853299,2.97304132 15.1987465,2.48298347 16.0253333,2.39200826 L20.0081701,1.93713223 C20.8414201,1.83940496 21.4421597,2.19584298 21.6701111,2.98014876 L26.9512187,22.1766281 C27.0985104,22.6386116 27.4646354,22.5966777 27.5105764,22.1137273 L27.9619201,2.25661157 C27.9685833,1.44742975 28.5167187,0.959859504 29.3545278,0.863909091 L34.8614826,0.229570248 C35.8329063,0.120115702 36.36,0.633272727 36.2768854,1.63613223 L33.9472222,32.345595 C33.8991771,33.1597521 33.3857604,33.6451901 32.5567188,33.7315455 L26.03275,34.4849339 C25.1970451,34.5826612 24.6422465,34.2191157 24.3680035,33.4394298 L20.5352639,22.1979504 C20.3900764,21.7452066 20.0193924,21.7850083 19.9825694,22.2679587 L18.7235764,34.0883388 C18.6267847,34.9142231 18.1663229,35.3900661 17.3306181,35.4877934 L10.8087535,36.2322975 C9.97304861,36.3300248 9.37230903,35.9710992 9.14435764,35.1917686 L0.0946875,5.78652066 Z" id="Fill-4" fill="#FEFEFE" mask="url(#mask-4)"></path>
                </g>
                <path d="M39.2103042,16.8859934 C39.4519326,13.7249603 40.7663354,5.16369587 51.7314986,3.91562975 C62.6966618,2.6579686 62.682634,11.0607372 62.4339917,14.2267455 L61.4923771,26.2034893 C61.2461896,29.3691421 59.933891,37.9232992 48.9690785,39.1855802 C38.0014604,40.442886 38.0179431,32.0305223 38.2641306,28.8698446 L39.2103042,16.8859934 Z M46.4226861,25.4124314 C46.1302069,29.1079438 46.1877208,31.330795 49.6087451,30.9366876 C53.0392382,30.5450678 53.4509535,28.265357 53.7318597,24.5794397 L54.2775403,17.6770512 C54.5654604,13.986514 54.5125056,11.7633074 51.0869222,12.1549273 C47.658884,12.5469025 47.2513771,14.8237702 46.9613528,18.516795 L46.4226861,25.4124314 Z" id="Fill-7" fill="#FEFEFE"></path>
            </g>
        </g>
    </g>
</svg>